# Silla modelo generado
o Chair
v -0.20500 -0.20500 0.42200
v 0.20500 -0.20500 0.42200
v 0.20500 0.20500 0.42200
v -0.20500 0.20500 0.42200
v -0.20500 -0.20500 0.45800
v 0.20500 -0.20500 0.45800
v 0.20500 0.20500 0.45800
v -0.20500 0.20500 0.45800
v -0.18500 -0.20386 0.44805
v 0.18500 -0.20386 0.44805
v 0.18500 -0.17614 0.45195
v -0.18500 -0.17614 0.45195
v -0.15170 -0.28737 1.04221
v 0.15170 -0.28737 1.04221
v 0.15170 -0.25964 1.04611
v -0.15170 -0.25964 1.04611
v 0.14400 0.14400 0.00000
v 0.17600 0.14400 0.00000
v 0.17600 0.17600 0.00000
v 0.14400 0.17600 0.00000
v 0.13400 0.13400 0.44000
v 0.18600 0.13400 0.44000
v 0.18600 0.18600 0.44000
v 0.13400 0.18600 0.44000
v 0.14400 -0.17600 0.00000
v 0.17600 -0.17600 0.00000
v 0.17600 -0.14400 0.00000
v 0.14400 -0.14400 0.00000
v 0.13400 -0.18600 0.44000
v 0.18600 -0.18600 0.44000
v 0.18600 -0.13400 0.44000
v 0.13400 -0.13400 0.44000
v -0.17600 0.14400 0.00000
v -0.14400 0.14400 0.00000
v -0.14400 0.17600 0.00000
v -0.17600 0.17600 0.00000
v -0.18600 0.13400 0.44000
v -0.13400 0.13400 0.44000
v -0.13400 0.18600 0.44000
v -0.18600 0.18600 0.44000
v -0.17600 -0.17600 0.00000
v -0.14400 -0.17600 0.00000
v -0.14400 -0.14400 0.00000
v -0.17600 -0.14400 0.00000
v -0.18600 -0.18600 0.44000
v -0.13400 -0.18600 0.44000
v -0.13400 -0.13400 0.44000
v -0.18600 -0.13400 0.44000
f 1 2 3 4
f 5 6 7 8
f 1 2 6 5
f 2 3 7 6
f 3 4 8 7
f 4 1 5 8
f 9 10 11 12
f 13 14 15 16
f 9 10 14 13
f 10 11 15 14
f 11 12 16 15
f 12 9 13 16
f 17 18 19 20
f 21 22 23 24
f 17 18 22 21
f 18 19 23 22
f 19 20 24 23
f 20 17 21 24
f 25 26 27 28
f 29 30 31 32
f 25 26 30 29
f 26 27 31 30
f 27 28 32 31
f 28 25 29 32
f 33 34 35 36
f 37 38 39 40
f 33 34 38 37
f 34 35 39 38
f 35 36 40 39
f 36 33 37 40
f 41 42 43 44
f 45 46 47 48
f 41 42 46 45
f 42 43 47 46
f 43 44 48 47
f 44 41 45 48
